<?xml version="1.0" standalone="no"?><!DOCTYPE svg PUBLIC "-//W3C//DTD SVG 1.1//EN" "http://www.w3.org/Graphics/SVG/1.1/DTD/svg11.dtd">
<svg t="1559196338062" class="icon" style="" viewBox="0 0 1306 1024" version="1.1" xmlns="http://www.w3.org/2000/svg"
     p-id="7736"
     width="326.5" height="256"><defs><style type="text/css"></style></defs><path d="M453.376601 100.306421c18.29894 0 33.953454 6.33087 46.974144 19.003211 13.022205 12.666283 19.530279 28.149652 19.530279 46.448591v263.906393c0 18.29894-6.508073 33.959512-19.530279 46.981717-13.020691 13.014632-28.675205 19.528764-46.974144 19.528765h-263.912451c-18.29894 0-33.782308-6.514132-46.448592-19.528765-12.666283-13.022205-19.003211-28.682778-19.003211-46.981717V165.756709c0-18.29894 6.336928-33.782308 19.003211-46.448592 12.666283-12.672341 28.149652-19.003211 46.448592-19.003211h263.912451z" fill="#4EA934" p-id="7737"></path><path d="M453.376601 628.131323c18.29894 0 33.953454 6.33087 46.974144 19.003211 13.022205 12.664769 19.530279 28.149652 19.530279 46.448592v264.963557c0 18.29894-6.508073 33.783823-19.530279 46.448591-13.020691 12.666283-28.675205 19.004726-46.974144 19.004726h-263.912451c-18.29894 0-33.782308-6.338443-46.448592-19.004726-12.666283-12.664769-19.003211-28.149652-19.003211-46.448591V693.583126c0-18.29894 6.336928-33.783823 19.003211-46.448592 12.666283-12.672341 28.149652-19.003211 46.448592-19.003211h263.912451z" fill="#1890ff" p-id="7738" data-spm-anchor-id="a313x.7781069.0.i23" class="selected"></path><path d="M982.252609 628.131323c18.29894 0 33.785337 6.33087 46.448592 19.003211 12.666283 12.664769 19.00624 28.149652 19.00624 46.448592v264.963557c0 18.29894-6.339957 33.783823-19.00624 46.448591-12.663254 12.666283-28.149652 19.004726-46.448592 19.004726h-263.912451c-18.29894 0-33.953454-6.338443-46.97263-19.004726-13.022205-12.664769-19.531793-28.149652-19.531793-46.448591V693.583126c0-18.29894 6.511103-33.783823 19.531793-46.448592 13.019176-12.672341 28.67369-19.003211 46.97263-19.003211h263.912451z" fill="#EC771E" p-id="7739"></path><path d="M1128.990961 216.42487c14.074826 14.074826 21.106938 30.616873 21.106938 49.620085 0 18.997153-7.032112 35.183278-21.106938 48.553832L932.638583 510.95268c-14.074826 14.074826-30.436641 21.108452-49.086958 21.108453s-35.009104-7.033627-49.093017-21.108453L638.112288 314.597273c-13.373584-13.370554-20.058861-29.55668-20.058861-48.553833 0-19.003211 6.685277-35.545259 20.058861-49.620084L834.458608 20.074006c14.083913-13.370554 30.442699-20.055832 49.093017-20.055831s35.012133 6.685277 49.086958 20.055831l196.352378 196.350864z" fill="#E9BD40" p-id="7740"></path></svg>