<svg xmlns="http://www.w3.org/2000/svg" xmlns:xlink="http://www.w3.org/1999/xlink" xmlns:lucid="lucid" width="780" height="600"><g transform="translate(0 0)" lucid:page-tab-id="0_0"><path d="M0 0h781.1v604.72H0z" fill="#fff"/><path d="M20 50c0-16.57 13.43-30 30-30h680c16.57 0 30 13.43 30 30v500c0 16.57-13.43 30-30 30H50c-16.57 0-30-13.43-30-30z" fill="none"/><path d="M35.04 24.1l3.17-1.7 4.72-1.56 4.93-.76L50 20h15.1m15.12 0h30.22m15.12 0h30.22m15.1 0h30.23m15.12 0h30.22m15.12 0h30.22m15.1 0h30.23m15.12 0h30.22m15.12 0h30.22m15.1 0h30.23m15.12 0h30.22m15.12 0h30.22m15.1 0h30.23m15.12 0h30.22m15.12 0h30.22m15.1 0H730l5 .42 4.82 1.22 4.54 2 .6.42m10.95 10.98l1.7 3.17 1.56 4.72.76 4.93L760 50v15.15m0 15.15v30.3m0 15.16v30.3m0 15.15v30.32m0 15.15v30.3m0 15.15v30.3m0 15.16v30.3m0 15.15v30.3m0 15.15v30.3m0 15.16v30.3m0 15.15v30.3m0 15.15V550l-.42 5-1.22 4.82-2 4.54-.42.6m-10.98 10.95l-3.17 1.7-4.72 1.56-4.93.76-2.15.08h-15.1m-15.12 0h-30.22m-15.12 0h-30.22m-15.1 0h-30.23m-15.12 0h-30.22m-15.12 0h-30.22m-15.1 0h-30.23m-15.12 0h-30.22m-15.12 0h-30.22m-15.1 0h-30.23m-15.12 0h-30.22m-15.12 0h-30.22m-15.1 0h-30.23m-15.12 0h-30.22m-15.12 0H80.22m-15.1 0H50l-5-.42-4.82-1.22-4.54-2-.6-.42m-10.95-10.98l-1.7-3.17-1.56-4.72-.76-4.93L20 550v-15.15m0-15.15v-30.3m0-15.16v-30.3m0-15.15v-30.32m0-15.15v-30.3m0-15.15v-30.3m0-15.16v-30.3m0-15.15v-30.3m0-15.15v-30.3m0-15.16v-30.3m0-15.15V80.3m0-15.15V50l.42-5 1.22-4.82 2-4.54.42-.6" stroke="#3aa6dd" stroke-width="3" fill="none"/><path d="M40 70c0-16.57 13.43-30 30-30h640c16.57 0 30 13.43 30 30v100c0 16.57-13.43 30-30 30H70c-16.57 0-30-13.43-30-30z" fill="none"/><path d="M55.04 44.1l3.17-1.7 4.72-1.56 4.93-.76L70 40h15.24m15.24 0h30.47m15.24 0h30.47m15.23 0h30.48m15.24 0h30.48m15.23 0h30.48m15.25 0h30.47m15.24 0h30.48m15.24 0h30.47m15.24 0h30.47m15.23 0h30.48m15.24 0h30.48m15.23 0h30.48m15.25 0h30.47m15.24 0H710l5 .42 4.82 1.22 4.54 2 .6.42m10.95 10.98l1.7 3.17 1.56 4.72.76 4.93L740 70v16.67m0 16.66v33.34m0 16.66V170l-.42 5-1.22 4.82-2 4.54-.42.6m-10.98 10.95l-3.17 1.7-4.72 1.56-4.93.76-2.15.08h-15.24m-15.24 0h-30.47m-15.24 0h-30.47m-15.23 0h-30.48m-15.24 0H511.9m-15.23 0H466.2m-15.25 0h-30.47m-15.24 0h-30.48m-15.24 0h-30.47m-15.24 0h-30.47m-15.23 0h-30.48m-15.24 0H191.9m-15.23 0H146.2m-15.25 0h-30.47m-15.24 0H70l-5-.42-4.82-1.22-4.54-2-.6-.42m-10.95-10.98l-1.7-3.17-1.56-4.72-.76-4.93L40 170v-16.67m0-16.66v-33.34m0-16.66V70l.42-5 1.22-4.82 2-4.54.42-.6" stroke="#3aa6dd" stroke-width="3" fill="none"/><use xlink:href="#a" transform="matrix(1,0,0,1,40,170) translate(305.55555555555554 11.11111111111111)"/><use xlink:href="#b" transform="matrix(1,0,0,1,40,170) translate(327.77777777777777 11.11111111111111)"/><use xlink:href="#c" transform="matrix(1,0,0,1,40,170) translate(350 11.11111111111111)"/><use xlink:href="#d" transform="matrix(1,0,0,1,40,170) translate(372.2222222222222 11.11111111111111)"/><path d="M40.55 250c0-16.57 13.43-30 30-30H350c16.57 0 30 13.43 30 30v280c0 16.57-13.43 30-30 30H70.55c-16.57 0-30-13.43-30-30z" fill="none"/><path d="M55.6 224.1l3.16-1.7 4.7-1.56 4.94-.76 2.15-.08h15.53m15.52 0h31.05m15.53 0h31.05m15.52 0h31.05m15.53 0h31.05m15.52 0h31.05m15.53 0H350l5 .42 4.82 1.22 4.54 2 .6.42m10.95 10.98l1.7 3.17 1.56 4.72.76 4.93.08 2.15v15.56m0 15.55v31.12m0 15.56v31.1m0 15.56v31.12m0 15.55v31.12m0 15.56v31.1m0 15.56V530l-.42 5-1.22 4.82-2 4.54-.42.6m-10.98 10.95l-3.17 1.7-4.72 1.56-4.93.76-2.15.08h-15.52m-15.53 0H287.9m-15.52 0h-31.05m-15.53 0h-31.05m-15.52 0h-31.05m-15.53 0H101.6m-15.52 0H70.55l-5-.42-4.82-1.22-4.54-2-.62-.42m-10.94-10.98l-1.68-3.17-1.57-4.72-.77-4.93-.08-2.15v-15.56m0-15.55v-31.12m0-15.56v-31.1m0-15.56v-31.12m0-15.55v-31.12m0-15.56v-31.1m0-15.56V250l.42-5 1.23-4.82 2-4.54.4-.6" stroke="#3aa6dd" stroke-width="3" fill="none"/><use xlink:href="#e" transform="matrix(1,0,0,1,40.55118110236225,530) translate(114.50617283950618 11.11111111111111)"/><use xlink:href="#f" transform="matrix(1,0,0,1,40.55118110236225,530) translate(136.7283950617284 11.11111111111111)"/><use xlink:href="#g" transform="matrix(1,0,0,1,40.55118110236225,530) translate(158.95061728395063 11.11111111111111)"/><path d="M400.55 250c0-16.57 13.43-30 30-30H710c16.57 0 30 13.43 30 30v280c0 16.57-13.43 30-30 30H430.55c-16.57 0-30-13.43-30-30z" fill="none"/><path d="M415.6 224.1l3.16-1.7 4.7-1.56 4.94-.76 2.15-.08h15.53m15.52 0h31.05m15.53 0h31.05m15.52 0h31.05m15.53 0h31.05m15.52 0h31.05m15.53 0H710l5 .42 4.82 1.22 4.54 2 .6.42m10.95 10.98l1.7 3.17 1.56 4.72.76 4.93.08 2.15v15.56m0 15.55v31.12m0 15.56v31.1m0 15.56v31.12m0 15.55v31.12m0 15.56v31.1m0 15.56V530l-.42 5-1.22 4.82-2 4.54-.42.6m-10.98 10.95l-3.17 1.7-4.72 1.56-4.93.76-2.15.08h-15.52m-15.53 0H647.9m-15.52 0h-31.05m-15.53 0h-31.05m-15.52 0h-31.05m-15.53 0H461.6m-15.52 0h-15.53l-5-.42-4.82-1.22-4.54-2-.62-.42m-10.94-10.98l-1.68-3.17-1.57-4.72-.77-4.93-.08-2.15v-15.56m0-15.55v-31.12m0-15.56v-31.1m0-15.56v-31.12m0-15.55v-31.12m0-15.56v-31.1m0-15.56V250l.42-5 1.23-4.82 2-4.54.4-.6" stroke="#3aa6dd" stroke-width="3" fill="none"/><use xlink:href="#h" transform="matrix(1,0,0,1,400.55118110236225,530) translate(103.39506172839506 11.11111111111111)"/><use xlink:href="#i" transform="matrix(1,0,0,1,400.55118110236225,530) translate(125.61728395061729 11.11111111111111)"/><use xlink:href="#j" transform="matrix(1,0,0,1,400.55118110236225,530) translate(147.8395061728395 11.11111111111111)"/><use xlink:href="#k" transform="matrix(1,0,0,1,400.55118110236225,530) translate(170.06172839506172 11.11111111111111)"/><path d="M55 80c0-11.05 8.95-20 20-20h110c11.05 0 20 8.95 20 20v40c0 11.05-8.95 20-20 20H75c-11.05 0-20-8.95-20-20z" stroke="#f5b5c8" stroke-width="2" fill="#f9d2de"/><use xlink:href="#l" transform="matrix(1,0,0,1,60,65) translate(25.555555555555557 39.44444444444444)"/><use xlink:href="#m" transform="matrix(1,0,0,1,60,65) translate(47.77777777777778 39.44444444444444)"/><use xlink:href="#n" transform="matrix(1,0,0,1,60,65) translate(70 39.44444444444444)"/><use xlink:href="#o" transform="matrix(1,0,0,1,60,65) translate(92.22222222222221 39.44444444444444)"/><path d="M225 80c0-11.05 8.95-20 20-20h110c11.05 0 20 8.95 20 20v40c0 11.05-8.95 20-20 20H245c-11.05 0-20-8.95-20-20z" stroke="#99d2f2" stroke-width="2" fill="#c1e4f7"/><use xlink:href="#p" transform="matrix(1,0,0,1,230,65) translate(25.555555555555557 39.44444444444444)"/><use xlink:href="#q" transform="matrix(1,0,0,1,230,65) translate(47.77777777777778 39.44444444444444)"/><use xlink:href="#r" transform="matrix(1,0,0,1,230,65) translate(70 39.44444444444444)"/><use xlink:href="#s" transform="matrix(1,0,0,1,230,65) translate(92.22222222222221 39.44444444444444)"/><path d="M395 80c0-11.05 8.95-20 20-20h115c11.05 0 20 8.95 20 20v40c0 11.05-8.95 20-20 20H415c-11.05 0-20-8.95-20-20z" stroke="#a3d977" stroke-width="2" fill="#c7e8ac"/><use xlink:href="#t" transform="matrix(1,0,0,1,400,65) translate(28.055555555555557 39.44444444444444)"/><use xlink:href="#u" transform="matrix(1,0,0,1,400,65) translate(50.27777777777778 39.44444444444444)"/><use xlink:href="#v" transform="matrix(1,0,0,1,400,65) translate(72.5 39.44444444444444)"/><use xlink:href="#w" transform="matrix(1,0,0,1,400,65) translate(94.72222222222221 39.44444444444444)"/><path d="M570 80c0-11.05 8.95-20 20-20h115c11.05 0 20 8.95 20 20v40c0 11.05-8.95 20-20 20H590c-11.05 0-20-8.95-20-20z" stroke="#ffc374" stroke-width="2" fill="#ffdba9"/><g><use xlink:href="#x" transform="matrix(1,0,0,1,575,65) translate(28.055555555555557 39.44444444444444)"/><use xlink:href="#b" transform="matrix(1,0,0,1,575,65) translate(50.27777777777778 39.44444444444444)"/><use xlink:href="#y" transform="matrix(1,0,0,1,575,65) translate(72.5 39.44444444444444)"/><use xlink:href="#z" transform="matrix(1,0,0,1,575,65) translate(94.72222222222221 39.44444444444444)"/></g><path d="M70.28 260c0-11.05 8.95-20 20-20h240c11.04 0 20 8.95 20 20v40c0 11.05-8.96 20-20 20h-240c-11.05 0-20-8.95-20-20z" stroke="#f5b5c8" stroke-width="2" fill="#f9d2de"/><g><use xlink:href="#a" transform="matrix(1,0,0,1,75.27559055118112,245) translate(68.33333333333333 39.44444444444444)"/><use xlink:href="#b" transform="matrix(1,0,0,1,75.27559055118112,245) translate(90.55555555555554 39.44444444444444)"/><use xlink:href="#A" transform="matrix(1,0,0,1,75.27559055118112,245) translate(112.77777777777777 39.44444444444444)"/><use xlink:href="#B" transform="matrix(1,0,0,1,75.27559055118112,245) translate(135 39.44444444444444)"/><use xlink:href="#C" transform="matrix(1,0,0,1,75.27559055118112,245) translate(157.22222222222223 39.44444444444444)"/><use xlink:href="#D" transform="matrix(1,0,0,1,75.27559055118112,245) translate(179.44444444444446 39.44444444444444)"/></g><path d="M70.28 360c0-11.05 8.95-20 20-20h240c11.04 0 20 8.95 20 20v40c0 11.05-8.96 20-20 20h-240c-11.05 0-20-8.95-20-20z" stroke="#99d2f2" stroke-width="2" fill="#c1e4f7"/><g><use xlink:href="#E" transform="matrix(1,0,0,1,75.27559055118112,345) translate(91.79012345679013 39.44444444444444)"/><use xlink:href="#F" transform="matrix(1,0,0,1,75.27559055118112,345) translate(133.76543209876542 39.44444444444444)"/><use xlink:href="#G" transform="matrix(1,0,0,1,75.27559055118112,345) translate(155.98765432098764 39.44444444444444)"/></g><path d="M70.28 460c0-11.05 8.95-20 20-20h240c11.04 0 20 8.95 20 20v40c0 11.05-8.96 20-20 20h-240c-11.05 0-20-8.95-20-20z" stroke="#a3d977" stroke-width="2" fill="#c7e8ac"/><g><use xlink:href="#H" transform="matrix(1,0,0,1,75.27559055118112,445) translate(90.55555555555556 39.44444444444444)"/><use xlink:href="#I" transform="matrix(1,0,0,1,75.27559055118112,445) translate(112.77777777777777 39.44444444444444)"/><use xlink:href="#J" transform="matrix(1,0,0,1,75.27559055118112,445) translate(135 39.44444444444444)"/><use xlink:href="#K" transform="matrix(1,0,0,1,75.27559055118112,445) translate(157.22222222222223 39.44444444444444)"/></g><path d="M430.28 260c0-11.05 8.95-20 20-20h240c11.04 0 20 8.95 20 20v40c0 11.05-8.96 20-20 20h-240c-11.05 0-20-8.95-20-20z" stroke="#f5b5c8" stroke-width="2" fill="#f9d2de"/><g><use xlink:href="#L" transform="matrix(1,0,0,1,435.27559055118115,245) translate(34.81481481481481 39.44444444444444)"/><use xlink:href="#M" transform="matrix(1,0,0,1,435.27559055118115,245) translate(130.06172839506172 39.44444444444444)"/><use xlink:href="#N" transform="matrix(1,0,0,1,435.27559055118115,245) translate(190.74074074074073 39.44444444444444)"/><use xlink:href="#O" transform="matrix(1,0,0,1,435.27559055118115,245) translate(212.96296296296296 39.44444444444444)"/></g><path d="M430.28 360c0-11.05 8.95-20 20-20h240c11.04 0 20 8.95 20 20v40c0 11.05-8.96 20-20 20h-240c-11.05 0-20-8.95-20-20z" stroke="#99d2f2" stroke-width="2" fill="#c1e4f7"/><g><use xlink:href="#P" transform="matrix(1,0,0,1,435.27559055118115,345) translate(88.67283950617283 39.44444444444444)"/><use xlink:href="#Q" transform="matrix(1,0,0,1,435.27559055118115,345) translate(136.8827160493827 39.44444444444444)"/><use xlink:href="#R" transform="matrix(1,0,0,1,435.27559055118115,345) translate(159.10493827160494 39.44444444444444)"/></g><path d="M430.28 460c0-11.05 8.95-20 20-20h240c11.04 0 20 8.95 20 20v40c0 11.05-8.96 20-20 20h-240c-11.05 0-20-8.95-20-20z" stroke="#a3d977" stroke-width="2" fill="#c7e8ac"/><g><use xlink:href="#S" transform="matrix(1,0,0,1,435.27559055118115,445) translate(69.93827160493827 39.44444444444444)"/><use xlink:href="#T" transform="matrix(1,0,0,1,435.27559055118115,445) translate(111.17283950617283 39.44444444444444)"/><use xlink:href="#U" transform="matrix(1,0,0,1,435.27559055118115,445) translate(133.39506172839506 39.44444444444444)"/><use xlink:href="#V" transform="matrix(1,0,0,1,435.27559055118115,445) translate(155.61728395061726 39.44444444444444)"/><use xlink:href="#W" transform="matrix(1,0,0,1,435.27559055118115,445) translate(177.8395061728395 39.44444444444444)"/></g><defs><path d="M102-174c15-7 11-28-4-40-11-9-30-29-53-36 27 27 33 31 47 68 2 5 6 8 10 8zm-2 51c-1-10 19-13 7-20-4-2-10-6-15-12l-11 11H22l5 10h55V0c0 8-1 14-5 18 7 7 13 15 17 22 19-18 37-40 54-67l-1-3c-15 15-31 27-47 35v-128zm118 2c7-38-4-100 9-126-6-4-20-4-29-9 19 134-10 261-95 305l3 2c70-37 91-70 109-152 11 68 36 115 80 145 9-8 22-12 36-12v-3c-68-20-97-79-113-150" id="X"/><use transform="matrix(0.06172839506172839,0,0,0.06172839506172839,0,0)" xlink:href="#X" id="a"/><path d="M71-192c5 15 23 7 20-8-5-23-25-34-51-50l-2 2c19 23 23 26 33 56zm25 71c1-9 19-12 6-20-4-2-9-5-14-11-12 14-45 6-69 8l6 10h53V-6c0 6-2 11-8 15 6 6 11 13 14 19 20-16 38-35 55-59l-2-3c-14 13-27 23-41 30v-117zm74-20c-2-9 16-15 2-19-6-1-14-3-21-6 8 56 1 129 3 191h-40l6 10h207c8-1 6-10-1-13-6-4-13-10-21-19l-19 22h-47v-125h76c7 0 6-8 1-11-8-4-16-8-21-16l-18 18h-38v-106h82c9-1 8-10-1-13-6-4-12-10-20-19l-20 22H125l5 10h91V25h-51v-166" id="Y"/><use transform="matrix(0.06172839506172839,0,0,0.06172839506172839,0,0)" xlink:href="#Y" id="b"/><path d="M295-252l-19 22H37l6 9h123v136H19l6 10h141V54c3 6 17-1 18-7V-75h140c8-1 8-11-1-13-6-4-13-10-21-19l-19 22h-99v-136h133c9-1 8-9-1-12-6-4-13-10-21-19zM118-111c18-6 10-29-3-43-10-10-28-31-49-41 24 29 29 37 43 76 2 5 5 8 9 8zm150-90c-7 26-24 56-50 93l5 3c20-18 41-44 63-76 6-2 15-7 3-11-7-2-14-4-21-9" id="Z"/><use transform="matrix(0.06172839506172839,0,0,0.06172839506172839,0,0)" xlink:href="#Z" id="c"/><path d="M308-109c17-11 8-33-8-50-12-13-35-36-64-48 27 26 37 34 50 62-76 3-139 5-191 5 25-26 51-59 77-100 8-2 14-8 2-12-7-2-14-5-21-10-9 34-33 75-68 122-19 0-27 1-49-2 7 5 10 46 23 28 63-13 136-11 230-26 5 9 7 29 19 31zm-32 52c0-7 26-14 6-21-4-3-10-8-16-14l-13 13H96L76-90c11 40-2 101 6 144 5-2 13-3 15-7V25h161c1 6-3 18 3 19l15-6v-95zM97 15v-85h161v85H97" id="aa"/><use transform="matrix(0.06172839506172839,0,0,0.06172839506172839,0,0)" xlink:href="#aa" id="d"/><path d="M183-218c-2-16 4-22 6-32l-28-9c5 9 4 26 4 41H55c-1-5 4-16-4-15 6 25-41 57-14 70 15-4 15-21 17-45h237c-7 16-13 28-19 37l3 3c15-8 19-29 43-32 9-1 10-11 3-14-6-4-13-9-19-16l-14 12H183zm-43 44c0-9 24-12 10-19-5-2-11-4-17-8-24 52-40 68-85 98l2 3c29-12 56-31 75-55 15 22 29 39 43 51-42 31-73 41-149 71l3 3c28-8 52-16 74-24 9 30-3 78 6 108 9-3 18-5 15-19h121c1 5-2 16 2 18 5-2 13-3 16-7v-72c-1-9 24-14 7-22-5-3-11-8-17-14l-11 13H116l-14-7c25-9 57-29 79-38 29 20 77 39 120 45 6-9 15-15 29-18v-4c-56-2-102-17-137-34 18-12 41-40 66-55-4-10-16-14-20-24-18 18-66 7-99 10zM117 25v-64h121v64H117zm112-190c-17 23-31 39-49 52-19-12-36-27-52-46 1-2 4-4 5-6h96" id="ab"/><use transform="matrix(0.06172839506172839,0,0,0.06172839506172839,0,0)" xlink:href="#ab" id="e"/><path d="M137-254c25 20 33 37 48 53 11 0 14-20 4-26-5-6-21-15-49-29zm160 86c-1-14 28-15 8-24-4-3-9-8-14-14l-14 13H82l-26-15c4 11 6 33 6 67C61-32 56-8 18 53l3 1C61 6 76-15 80-97h225c5 0 7-2 7-6-20-7-13-39-15-65zM81-184h196v77H81v-77" id="ac"/><use transform="matrix(0.06172839506172839,0,0,0.06172839506172839,0,0)" xlink:href="#ac" id="f"/><path d="M95-197c0-22-2-45 7-55-7-4-20-5-29-10 7 15 3 43 4 65H18l5 9h117c9 1 9-7 2-11-8-4-16-10-20-16-8 7-10 20-27 18zM59-23c21-12 10-36 4-69-5-22-14-49-27-79l-3 1c12 48 18 94 19 139 0 5 2 7 7 8zM37 33C65 14 96 5 139-27l-3-3c-20 9-38 17-53 23 14-30 29-81 45-151 5-3 12-8 0-10-6-1-13-3-21-7-6 61-16 117-31 170-17 8-42 15-59 16 5 3 13 40 20 22zm202-218c0-25-3-55 7-69l-26-8c6 20 2 52 3 77h-55c0-20-2-46 6-56-3-6-18-4-26-9 6 29 2 66 3 99 10 6 21-8 17-24h126c1 5-3 16 3 16 4-3 13-1 13-8 1-26-5-62 7-76-5-5-18-3-26-8 5 20 2 43 3 66h-55zm59 239c45-11 3-105 33-128-5-7-14-9-18-18l-12 9h-90c9-11 17-24 23-38h90c8 1 9-8 2-10-8-5-14-10-18-16l-16 17H129l6 9h80c-2 12-5 25-9 38-27 0-56 3-70-10 9 41 1 97 4 144 0 7 10-1 14-1 7-36 0-84 2-124h36V46c2 7 15-1 17-6V-74h37V46c2 5 15-1 16-6V-74h41v94c0 19-13 9-28 8v3c12 4 19 13 23 23" id="ad"/><path d="M178-68c0 79-95 82-154 59v-54h12c1 35 22 52 60 52 50 0 69-58 33-82-39-24-105-21-105-85 0-67 86-66 142-53v49h-12l-6-29c-31-27-121-7-89 42 28 43 119 24 119 101" id="ae"/><path d="M75-17c87 13 134-18 134-103 0-78-51-106-134-100v203zm171-102C246 5 139 7 10 0v-9l31-5v-208l-31-4v-10h107c82 0 129 35 129 117" id="af"/><path d="M238-236v10l-27 4-81 79L231-14l25 5v9h-57l-93-119-31 25v80l33 5v9H10v-9l31-5v-208l-31-4v-10h95v10l-30 4v111l112-111-23-4v-10h74" id="ag"/><g id="g"><use transform="matrix(0.06172839506172839,0,0,0.06172839506172839,0,0)" xlink:href="#ad"/><use transform="matrix(0.06172839506172839,0,0,0.06172839506172839,22.22222222222222,0)" xlink:href="#ae"/><use transform="matrix(0.06172839506172839,0,0,0.06172839506172839,34.5679012345679,0)" xlink:href="#af"/><use transform="matrix(0.06172839506172839,0,0,0.06172839506172839,50.55555555555555,0)" xlink:href="#ag"/></g><path d="M82-210c12-2 14-22 1-29-6-3-21-18-33-17 13 15 16 18 23 38 2 5 5 8 9 8zm-15 76c16-40 39-56 57-91-26 26-48 47-64 67-8 10-26 3-35 11 37-2 13 46 41 50 17-4 5-27 1-37zm113-95c0-11 26-18 11-24-5-2-11-5-18-10-9 40-27 68-52 92l3 3c22-15 35-30 50-51h45c-13 56-48 74-105 89l1 3c56-10 90-26 112-64 12 35 40 50 74 62 8-9 24-8 33-13-50-8-85-22-103-57 3-6 5-12 7-20h56c-9 15-17 27-25 35 16 3 26-27 50-28 18-11-12-17-16-28l-11 11H180zm89 131c1-7 24-13 6-19-4-3-9-7-14-13l-12 12H103l-19-9c9 35 2 82 4 123 2 7 14-1 16-4v-100h149V-8c1 9 9 0 13 0 9-22 0-62 3-90zm-82 49c-6-18 14-30-2-33-7-1-14-3-22-6 10 8 7 78-9 84-34 33-61 39-125 54l1 3c76-15 150-20 157-102zm7 43c51 18 78 39 109 57 16-3 7-19-3-26-14-10-49-22-105-36" id="ah"/><use transform="matrix(0.06172839506172839,0,0,0.06172839506172839,0,0)" xlink:href="#ah" id="h"/><path d="M44-241c21 13 25 28 37 40 11 0 13-19 4-26-7-5-19-11-38-18zm-19 70c18 14 22 29 33 41 10 0 12-19 4-26-5-6-17-12-35-19zM70-13c10-65 20-92 34-154l-2-1C84-122 69-83 57-49c-6 18-17 14-34 16v5c31 2 30 20 30 49 0 14 16 25 23 13 8-13-9-32-6-47zm236-145c-1-8 19-13 4-20-5-3-10-7-15-13l-11 10h-67c9-12 17-27 24-44h86c7 0 6-8 1-11-9-4-16-10-22-18l-18 20H143l-23-14c4 12 5 36 5 75-1 117-3 143-36 212l3 1c51-64 51-137 51-265h77c-2 15-4 29-8 44-22 1-40-1-51-10 9 36 2 85 4 127 5 5 20-1 16-13h50v95c-1 15-30 8-44 7v4c24 4 31 14 40 24 34-12 16-85 20-130h43c1 4-2 11 2 12 4-2 12-3 14-7v-86zM181-86v-40h109v40H181zm0-50v-35h109v35H181zM122 38c33-10 54-46 81-69-4-7-15-8-22-17-13 37-33 62-59 86zm191-17c6 14 22 8 19-8-5-26-33-45-63-58 26 27 30 30 44 66" id="ai"/><use transform="matrix(0.06172839506172839,0,0,0.06172839506172839,0,0)" xlink:href="#ai" id="i"/><path d="M135-217c0-7 19-14 7-19-5-3-9-8-14-14-15 17-67 13-84-2 3 16 4 49 4 101C47-40 45-16 18 53l3 1C48 9 58-16 63-79h55v89c0 22-21 9-40 10v4c17 5 29 12 36 23 8-3 21-17 21-30v-234zM63-89l2-71h53v71H63zm2-81v-60h53v60H65zm235-42c1-5 22-7 8-16-5-3-10-9-14-16-24 17-77 5-114 8l-19-9c11 91 1 200 4 298 3 5 13-2 16-4v-156h26c8 52 17 79 40 108-14 18-29 30-60 48l1 2c29-11 50-22 67-40 13 14 29 27 46 35 9-7 20-11 33-11v-3c-28-7-52-18-68-34 20-28 29-48 40-96 6-3 21-7 7-13-4-4-8-10-12-18l-14 13H181v-110h103c-5 30 5 76-48 59v2c15 6 24 14 30 25 33-17 24-18 34-72zm-89 105h77c-6 46-14 67-31 95-24-26-37-54-46-95" id="aj"/><use transform="matrix(0.06172839506172839,0,0,0.06172839506172839,0,0)" xlink:href="#aj" id="j"/><path d="M130-221c6-6 7-18 17-22 6-2 5-5-2-8-6-2-13-6-20-11-18 55-47 92-91 124l3 2c35-20 57-40 81-68 16 29 35 50 54 65-49 26-81 35-153 50l3 3c68-11 117-19 162-46 26 15 61 30 106 43 13-13 23-17 42-14v-4c-54-8-94-16-133-34 18-12 36-31 60-58 1-7 27-8 15-18-5-4-11-11-16-19l-16 15H130zm114 10c-23 32-36 45-59 63-25-12-41-30-63-61 35-6 83 0 122-2zM203 22c17 4 28 16 36 29 44-27 29-29 44-97 4-5 24-10 8-17-5-3-10-7-14-14l-13 13h-90c4-10 1-26 11-29 6-11-14-10-24-18-1 18-3 33-6 47H60l6 10h87C134 8 90 30 18 51l1 4C94 39 152 14 172-54h94c-10 76-4 88-63 72v4" id="ak"/><g id="k"><use transform="matrix(0.06172839506172839,0,0,0.06172839506172839,0,0)" xlink:href="#ak"/><use transform="matrix(0.06172839506172839,0,0,0.06172839506172839,22.22222222222222,0)" xlink:href="#ae"/><use transform="matrix(0.06172839506172839,0,0,0.06172839506172839,34.5679012345679,0)" xlink:href="#af"/><use transform="matrix(0.06172839506172839,0,0,0.06172839506172839,50.55555555555555,0)" xlink:href="#ag"/></g><path d="M156-255c19 17 24 34 35 48 11 0 12-21 4-29-6-7-18-15-36-23zM22 50C69-8 70-72 70-189h251c7 0 9-8 2-11-9-4-16-10-22-18l-18 19H70l-23-13c4 11 5 33 5 68C52-37 49-14 19 49zm104-70c5 14 21 8 20-8-4-36-24-60-47-91l-2 1c18 41 20 48 29 98zm77-6c20-9 8-37-1-60-7-19-21-41-39-67 14 47 24 60 31 119 2 5 5 8 9 8zm72-133c-13 69-32 119-59 169l2 3c32-38 53-85 72-144 4-5 19-7 5-13-6-3-13-8-20-15zM305 2l-18 19H67l6 10h251c10 0 10-8 2-12-9-4-16-11-21-17" id="al"/><use transform="matrix(0.06172839506172839,0,0,0.06172839506172839,0,0)" xlink:href="#al" id="l"/><path d="M298-210c0-7 18-13 8-19-5-3-10-8-15-14l-12 11H81l-23-13c4 15 5 45 5 93C62-38 58-14 21 50l2 1C54 11 69-12 77-67h89V49c3 5 16-1 17-6V-67h99v80c-1 25-24 9-46 9v4c15 6 25 15 30 28 10-2 36-17 32-33v-231zM78-77c2-18 3-39 3-65h85v65H78zm105-65h99v65h-99v-65zM81-152v-70h85v70H81zm102-70h99v70h-99v-70" id="am"/><use transform="matrix(0.06172839506172839,0,0,0.06172839506172839,0,0)" xlink:href="#am" id="m"/><path d="M45-245c25 17 30 36 46 49 12-1 12-22 2-29-7-8-22-16-45-25zm-22 86c23 16 29 34 43 47 12 0 12-20 3-28-8-6-21-15-43-23zM69 47c22-9-2-48 1-67 9-54 29-103 42-153l-2-1C89-128 73-88 59-54c-6 14-14 12-26 16v4c40 1-1 73 36 81zm104-298c24 19 31 39 45 56 12-1 10-21 2-30-8-8-23-19-46-30zm118 45l-16 20H122l6 9h72v87h-72l5 9h67V24h-97l6 9h214c11 0 10-8 1-11-10-6-17-12-22-19l-18 21h-67V-81h77c10 0 10-7 2-11-9-4-15-11-20-17l-17 19h-42v-87h92c10 0 10-7 2-11-9-4-15-11-20-18" id="an"/><use transform="matrix(0.06172839506172839,0,0,0.06172839506172839,0,0)" xlink:href="#an" id="n"/><path d="M153-217c0-7 17-13 7-19-5-3-9-8-14-14l-13 14c-31 0-67 4-82-12 3 19 4 70 4 133H18l5 10h32C54-19 50-1 25 53l2 1C62 4 70-14 71-105h65V14c0 20-16 11-33 10v4c12 6 19 13 23 25 9-2 30-16 27-31v-127h36c-2 80-6 104-28 158l2 1c31-51 41-74 42-159h67V14c-1 20-16 11-33 10v4c14 5 19 14 25 25 9-2 24-16 24-31v-127c15-2 41 6 46-6-6-8-21-14-25-22-7 6-10 16-21 18v-100c1-7 20-13 8-20-5-3-9-7-14-13l-13 14h-62l-22-13c4 14 4 86 4 132h-36v-102zM71-115v-111h65v111H71zm135 0v-110h66v110h-66" id="ao"/><use transform="matrix(0.06172839506172839,0,0,0.06172839506172839,0,0)" xlink:href="#ao" id="o"/><path d="M48-245c15 16 22 30 30 44 8 0 11-16 4-22-3-5-13-13-32-25zm85 45c21-2 32-27 50-37-4-6-14-7-20-14-7 22-17 36-30 51zm28 76c23-21-14-36-39-44v-13h69c9 1 9-8 2-10-7-4-13-10-17-15l-15 15h-39c1-20-4-48 6-59-5-5-20-4-25-8 4 12 3 47 3 67H29l5 10h63c-18 38-42 60-74 80l2 4c36-16 60-36 81-66v54l-4-2c-2 10-7 22-14 36H21l5 10h57C75-49 64-30 50-8c11 11 21-5 24-14 16 5 30 10 41 17-22 30-50 45-96 56v3c51-7 83-23 108-51 20 12 22 21 36 28 4-1 7-4 7-10-6-15-18-19-35-29 9-13 18-27 31-57 13-1 52 3 35-11-7-6-16-11-20-17l-16 18h-59c4-9 11-19 19-23-1-5-12-5-17-9 23-1 12-36 14-58 16 11 20 16 31 34 2 4 4 7 8 7zm-14 59c-10 25-18 42-25 51-11-5-27-9-45-13l23-38h47zm109 33c22-41 35-79 43-143 11 0 38 2 24-11-8-3-15-8-20-15l-16 16h-57c6-13 11-29 17-47 3-4 20-8 5-14-7-2-13-6-21-12-11 65-27 112-58 155l3 3c14-15 25-31 35-49 3 44 13 84 28 119-24 37-52 60-99 81l1 3c47-15 82-35 105-70 10 17 27 38 49 62 13-6 20-11 32-3l1-4c-35-21-54-41-72-71zm-7-14c-12-28-28-69-32-114 3-5 6-9 9-15h55c-6 58-16 92-32 129" id="ap"/><use transform="matrix(0.06172839506172839,0,0,0.06172839506172839,0,0)" xlink:href="#ap" id="p"/><path d="M56 53c10 7 28-13 28-28V-83c15-6 32-13 51-22-14-6-37 8-51 8v-70h49c7 1 10-9 2-10-7-4-13-10-17-15-8 9-14 18-34 15v-60c-1-7 16-11 0-14-6 0-12-2-19-5 4 20 1 55 2 79H18l5 10h44v74l-52 7c5 5 9 22 17 27 4-8 21-14 35-18V25c-2 11-26 4-35 4v4c13 3 21 10 24 20zm257-279c0-9 24-13 7-21-4-3-10-6-15-12l-11 14H162l-23-14c4 13 5 42 5 86-2 125-9 151-56 219l3 1c44-50 62-74 69-158h69v51c-25 0-50 2-63-10 9 34 2 81 4 121 9 8 21-4 17-20h107c1 6-3 19 3 20 4-2 11-3 13-7v-85c0-9 23-12 7-21-5-3-10-6-15-12l-11 14h-45v-51h84c7 1 6-8 2-11-8-3-15-8-20-15l-17 16h-49c-2-19 1-32 7-41l-26-8c4 12 1 33 2 49h-68c1-15 1-33 1-52h135c1 6-3 16 3 17 4-2 11-3 13-7v-63zM187 21v-71h107v71H187zm-25-257h135v54H162v-54" id="aq"/><use transform="matrix(0.06172839506172839,0,0,0.06172839506172839,0,0)" xlink:href="#aq" id="q"/><path d="M86-221c1-13 32-19 17-28-6-2-12-5-19-10-17 47-30 64-63 93l1 4c23-10 43-29 58-49h26c12 12 11 41 26 46 23-11-7-37-19-46h57c7 0 8-8 2-11-8-3-14-8-19-15l-17 16H86zm132 0c6-8 10-20 20-24-5-6-17-9-25-16-7 34-19 58-39 79-5-1-10-2-16-4 7 7 3 22 4 35H59v-17h-4c-2 32-20 40-34 57 1 6 5 9 11 10 17-4 24-19 26-40h240c-7 15-13 26-19 34l3 3c15-7 20-27 43-30 9-1 9-11 2-14-6-4-12-10-18-17l-14 14H180c-6-16 16-25 1-30 12-9 21-19 30-30h32c14 12 14 39 29 46 6-1 9-4 10-12-5-13-19-25-32-34h76c7 0 6-9 1-11-8-3-14-8-19-15l-17 16h-73zm33 128c0-8 25-13 8-21-5-3-10-6-15-12l-11 12H102l-21-10C91-74 82-7 85 50c1 9 10 0 14 0 5-1 4-4 4-9h154c-3 11 6 8 13 5 7-10 1-33 3-48-1-9 25-13 8-21-5-3-10-7-15-12l-10 12H103v-30h132c-2 12 5 12 13 7 7-10 3-32 3-47zM103 32v-45h154v45H103zm0-95v-41h132v41H103" id="ar"/><use transform="matrix(0.06172839506172839,0,0,0.06172839506172839,0,0)" xlink:href="#ar" id="r"/><path d="M33 0c29-24 64-27 111-57l-3-3c-22 8-42 15-59 20v-82h50c9 1 9-8 2-10-7-4-13-10-17-15-8 9-15 19-35 16v-73h53c7 0 8-10 1-11-8-5-14-9-18-15l-15 16H15l6 10h45v73H18l5 9h43v87c-17 3-36 8-49 9 5 5 8 22 16 26zm280-217c0-9 24-12 7-20-4-3-10-7-15-13l-11 13H161l-20-10c14 47-2 120 7 172 10-2 17-7 14-22h56v51h-74l6 9h68v66H100l6 10h226c10 1 12-9 3-11-9-5-15-11-20-18l-17 19h-63v-66h80c7 1 9-9 1-10-8-5-14-11-19-17l-17 18h-45v-51h62c1 6-3 17 3 18 4-2 11-3 13-7v-131zM162-107v-55h56v55h-56zm73-55h62v55h-62v-55zm-73-9v-56h56v56h-56zm73-56h62v56h-62v-56" id="as"/><use transform="matrix(0.06172839506172839,0,0,0.06172839506172839,0,0)" xlink:href="#as" id="s"/><path d="M18-111c68-24 121-70 160-126 31 59 72 91 123 118 8-7 19-11 33-11l1-4c-66-18-119-58-155-106 4-4 20-7 6-12-6-2-11-6-18-11-44 79-72 104-151 148zm202-49l-17 18H100l6 9h132c8 0 8-8 1-11-8-5-14-10-19-16zm56 92c0-10 23-16 6-24-4-2-10-6-16-13l-10 12H60l6 10h71V53c4 5 16-2 18-7V-83h103v67c0 21-26 10-42 10v4c20 6 28 12 35 23 31-3 26-52 25-89" id="at"/><use transform="matrix(0.06172839506172839,0,0,0.06172839506172839,0,0)" xlink:href="#at" id="t"/><path d="M62-153c2-29-7-71 7-87-5-4-18-4-26-8C45-155 57-8 14 51l3 3C45 25 59-20 61-75h42V53c3 5 14-2 17-4V-62c-1-8 19-13 5-20-5-3-10-6-15-12-7 12-29 9-48 9v-59h82c7 0 8-6 3-10-7-3-13-7-18-14-6 5-8 13-17 15 2-32-7-78 8-95-5-5-18-4-26-8 5 29 1 70 2 103H62zm145-69c14-10 20-21 32-30-5-6-17-7-23-14-2 15-7 30-15 44-22 1-41-1-53-10 13 38-1 99 7 142 8-2 17-5 14-18h123c1 5-3 16 3 16 4-2 13-2 14-6v-101c0-8 21-13 5-20-5-3-9-7-14-13l-12 10h-81zm-38 104v-44h52v44h-52zm69-44h54v44h-54v-44zm-69-9v-41h52v41h-52zm69-41h54v41h-54v-41zM166-37c18-11 28-33 46-46-4-5-14-7-21-13-8 28-14 40-31 59h-31l6 10h98c2 26-4 60 2 82 5-3 14-2 15-8v-74h76c7 0 9-9 1-11-8-5-14-10-19-16l-17 17h-41c2-18-5-45 6-53-3-7-20-4-25-8 3 11 2 43 2 61h-67" id="au"/><use transform="matrix(0.06172839506172839,0,0,0.06172839506172839,0,0)" xlink:href="#au" id="u"/><path d="M84-218c6-9 13-20 23-26-4-6-17-8-25-15-18 49-28 65-63 99 23-6 41-30 58-48h25c10 12 10 39 24 43 23-11-4-33-17-43h65c7 0 9-8 2-11-8-3-15-8-20-15l-16 16H84zm132 0c7-9 12-21 23-27-5-6-17-9-25-16-11 38-19 52-40 79-3-1-6-4-9-6-38 49-76 70-147 102l1 3c61-15 122-51 157-84 33 38 74 56 121 73 9-8 22-13 37-13l1-4c-63-10-116-29-156-58 11 0 12-8 0-11 11-8 20-17 29-28h36c16 12 16 40 31 49 23-14-10-39-24-49h77c7 0 9-8 2-11-8-4-16-9-21-17l-18 18h-75zm16 106l-15 16H94l5 10h150c9 0 10-10 1-11-8-5-14-9-18-15zM103 28c10-4 15-21 6-34-7-10-23-25-50-46l-3 3C74-28 86-5 95 22c1 4 5 6 8 6zm73-26c15-4 10-28-1-40-8-8-24-27-42-33 20 26 24 30 33 65 2 5 6 8 10 8zm90-80c-19 51-40 75-75 114H22l5 10h292c11 0 10-8 2-12-9-4-16-11-21-17l-18 19h-84c30-22 58-51 82-89 5-5 21-9 5-15-6-3-13-6-19-10" id="av"/><use transform="matrix(0.06172839506172839,0,0,0.06172839506172839,0,0)" xlink:href="#av" id="v"/><path d="M52-170c11-16 19-42 32-57-3-7-13-3-21-10-7 29-19 57-36 79 0 1 3 5 9 8 10 4 11-6 17-10h86C115-77 78-29 18 20l3 2c54-35 80-62 109-119 12 43 28 64 52 88-39 30-62 37-131 60l1 3c69-14 109-29 141-53 27 23 60 38 99 49 11-9 25-14 42-14v-4c-56-9-93-22-127-44 20-19 43-46 66-81 2-5 22-5 13-16-4-2-9-9-15-20l-17 14H139c5-13 11-28 16-45h166c10 1 14-8 5-11-7-4-12-9-16-13l-16 14H158c6-20 11-43 16-69 1-6 19-10 4-14-6-2-12-5-19-9-4 33-9 64-17 92H52zm82 65h124c-23 39-41 62-63 84-29-22-46-49-61-84zm138-92c12-3 15-22 0-30-7-4-22-17-37-20 16 17 18 19 27 41 2 5 6 9 10 9" id="aw"/><use transform="matrix(0.06172839506172839,0,0,0.06172839506172839,0,0)" xlink:href="#aw" id="w"/><path d="M77-81c11-31-5-89 7-116 0-2-1-3-4-4 15-12 22-35 40-44 5-3 6-7-2-8-5-2-11-5-18-10-24 52-38 68-82 98l1 3c16-6 30-13 44-24v105c1 9 10 0 14 0zm206-181c-46 21-103 32-154 38l1 5c25-1 50-3 75-6v52H104l6 10h95v55h-80l5 10h183c7 1 11-9 2-11-8-5-15-11-20-17l-16 18h-58v-55h103c9 1 11-8 3-11-9-5-16-11-21-18l-16 19h-69v-54l80-17c-4-6-12-9-18-18zM242 18c0-29-9-72 11-83-4-8-14-11-20-20l-12 11c-40-2-93 8-117-11C121-15 93 34 34 51l2 3c61-20 91-42 89-118h100c9 53-30 122 51 113 35-4 44-3 58-14-12-4-13-31-15-48-13 47 3 45-43 45-26 0-34 3-34-14" id="ax"/><use transform="matrix(0.06172839506172839,0,0,0.06172839506172839,0,0)" xlink:href="#ax" id="x"/><path d="M132-96c-6-21-13-22-38-44v-31c16-3 43 7 49-6-5-8-20-12-23-20-8 6-10 18-26 16 2-22-5-54 5-67-2-7-20-4-23-8 2 22 1 51 1 75H23c3 15 26 9 43 10-15 67-23 75-48 138 28-37 44-66 59-118l1 206c5-3 13-3 16-8v-179c14 17 19 38 30 49 5 0 8-5 8-13zm101-110c-1-19 1-35 7-45l-26-8c5 12 3 36 3 53h-78l5 10h175c11 1 10-9 2-11-9-5-16-11-21-18l-18 19h-49zm-48 21c-7 38-30 64-44 89 24-16 42-37 57-66 3-4 16-6 4-11-5-2-11-6-17-12zm61 3l-2 2c22 23 38 43 46 59 5 11 9 16 12 16 12-2 10-21 1-29-6-9-25-25-57-48zM125 55c44-16 79-33 103-62 19 20 52 48 75 56 9-8 20-13 31-13v-4c-38-11-70-29-96-52 12-17 24-40 34-69 3-5 18-9 4-15-5-2-11-6-18-12-10 43-18 64-31 86-17-16-34-41-50-73h-4c14 38 25 63 46 86-25 30-55 52-95 70" id="ay"/><use transform="matrix(0.06172839506172839,0,0,0.06172839506172839,0,0)" xlink:href="#ay" id="y"/><path d="M129-217c4-4 19-10 5-17-5-3-9-7-14-13l-13 10H18l5 10h89l-10 112H44c10-28 3-66 18-86-5-4-17-4-25-9 2 38-1 79-14 107-1 3 10 8 13 9s4-10 9-11h85c-5 74-3 99-18 132-12 9-19 2-43-1v3c25 3 24 35 49 20 27-31 20-65 28-138-2-9 17-12 5-19-4-2-9-7-14-13-6 3-9 7-19 6zM12-31c6 2 14 37 21 20 24-13 50-18 87-38l-3-3C75-40 50-36 12-31zm125-96c45-21 76-61 100-107 18 44 39 70 69 93 8-7 19-11 33-11l2-4c-44-14-78-45-101-81 5-3 17-7 4-11-5-2-10-6-17-10-26 65-42 89-91 128zm135-25l-15 16h-88l5 10h114c9 1 10-8 2-10-8-5-14-10-18-16zM200 7c16-5 8-26 0-41-7-12-19-27-34-43 11 31 20 39 26 77 2 4 4 7 8 7zm39-35c14-7 9-27-2-41-7-10-22-30-40-39 20 29 23 34 34 73 2 4 4 7 8 7zm62-83c-17 69-26 91-59 142H137l6 9h184c8-1 6-11-2-13-7-4-14-11-22-20l-20 24h-35c26-29 49-70 68-120 6-2 17-7 3-11-5-2-11-6-18-11" id="az"/><use transform="matrix(0.06172839506172839,0,0,0.06172839506172839,0,0)" xlink:href="#az" id="z"/><path d="M284-155c18-7 10-28-5-41-11-9-31-27-55-36 15 13 25 24 31 32-44 3-89 5-136 6 16-10 29-31 37-46 1-3 25-4 8-11-6-2-13-6-20-11-8 29-18 47-36 69l-53 1c5 6 10 32 16 19l87-9c-9 18-18 33-27 46H26l6 10h92C97-93 70-76 18-49l1 3c65-27 93-38 127-80h59c8 28 63 70 86 78 13-8 26-13 40-14v-3c-59-12-83-24-120-61h109c9-1 7-10-1-13-6-4-13-10-21-19l-19 22H154c10-9 16-29 31-36 2-1 3-3 3-5-1-4-11-5-15-8 30-4 58-7 85-11 8 7 12 35 26 41zM65-33c53-7 90-23 130-52 11 0 13-3 5-7-4-2-8-6-13-12-34 34-80 55-124 67zM53 13c78-7 136-31 201-62-3-6-12-9-18-16C185-26 115-4 52 9zM41 54c101-2 203-23 269-60-3-8-15-11-20-20-61 51-151 66-252 77" id="aA"/><use transform="matrix(0.06172839506172839,0,0,0.06172839506172839,0,0)" xlink:href="#aA" id="A"/><use transform="matrix(0.06172839506172839,0,0,0.06172839506172839,0,0)" xlink:href="#ap" id="B"/><path d="M165-158c-1-9 21-13 5-20-5-3-10-7-15-13-6 10-18 13-35 11v-52h52c9 1 9-8 2-10-7-4-14-9-18-14l-15 15H21l5 9h43v52c-19 2-32-2-43-9 10 72 1 161 4 240 9 7 21-3 17-19h101c1 6-3 17 3 18 4-2 12-3 14-7v-201zM47 22v-45h101v45H47zm57-192c5 32-14 90 18 93h26v44H47v-17c32-30 36-61 37-120h20zm44 80c-11-2-28 7-28-10v-70h28v80zm-44-90H84v-52h20v52zM47-60v-110h22c-1 51-3 80-22 110zm268-151c0-7 17-12 5-19-5-4-10-8-14-13l-14 11H188l6 10h104v96c-38-2-88 7-110-11 9 42 1 90 4 137 3 44 1 43 47 43 33 0 79 10 92-14-13-5-7-37-12-53-7 24-3 58-41 52-32-5-69 16-69-28v-116h89c1 6-3 17 3 18 4-3 12-2 14-7v-106" id="aB"/><use transform="matrix(0.06172839506172839,0,0,0.06172839506172839,0,0)" xlink:href="#aB" id="C"/><path d="M298-225c0-8 21-13 5-20-5-2-10-7-15-13l-11 10H63l-19-10c10 22-2 61 7 84 7-3 17-3 14-15h217c-3 12 5 12 13 7 8-8 3-29 3-43zM65-199v-40h60v40H65zm76 0v-40h64v40h-64zm80 0v-40h61v40h-61zm44 110c-1-8 25-13 8-20-5-3-10-7-15-13-17 14-58 4-87 7l12-30h120c8 0 8-9 0-11-6-4-11-10-16-17l-15 18h-85c0-10 19-18 8-23-5-1-11-4-18-7-1 8-4 17-8 30H37l6 10h123l-13 30c-26 0-53 2-67-9 11 40 2 96 5 144 4 4 18-1 16-10h142c-3 12 5 10 13 6 2-1 3-2 3-3V-89zM107 0v-28h142V0H107zm0-38v-27h142v27H107zm0-37v-30h142v30H107zm-47 0c-1-9 14-15 2-20-9-1-17-3-22-5 8 45-1 106 4 154 6-4 18-1 16-13h252c7 1 6-7 2-10-8-3-15-9-20-16l-17 17H60V-75" id="aC"/><use transform="matrix(0.06172839506172839,0,0,0.06172839506172839,0,0)" xlink:href="#aC" id="D"/><path d="M199-173c-1 36-21 56-49 65l64 94 26 5v9h-57l-66-103H75v89l35 5v9H13v-9l28-5v-208l-31-4v-10c80 4 190-20 189 63zM75-119c50 2 89-1 89-51 0-49-39-52-89-50v101" id="aD"/><path d="M75-108c48 3 76-12 76-58s-28-57-76-54v112zm111-58c-1 60-46 78-111 74v78l37 5v9H13v-9l28-5v-208l-31-4v-10c81 1 178-14 176 70" id="aE"/><path d="M52-115c0 93 80 130 150 87l7-35h11l-1 55c-23 7-52 12-83 12C60 4 19-37 15-115c-5-113 97-141 201-114l1 51h-12l-5-30c-15-9-39-16-62-16-66 0-86 41-86 109" id="aF"/><g id="E"><use transform="matrix(0.06172839506172839,0,0,0.06172839506172839,0,0)" xlink:href="#aD"/><use transform="matrix(0.06172839506172839,0,0,0.06172839506172839,14.814814814814813,0)" xlink:href="#aE"/><use transform="matrix(0.06172839506172839,0,0,0.06172839506172839,27.160493827160494,0)" xlink:href="#aF"/></g><path d="M280-243l-19 22H48l5 10h112V14H19l6 10h296c12 0 13-10 3-12-11-6-18-13-24-21l-21 23h-95v-225h117c12 1 11-9 3-12-10-6-18-13-24-20" id="aG"/><use transform="matrix(0.06172839506172839,0,0,0.06172839506172839,0,0)" xlink:href="#aG" id="F"/><path d="M262-214c0-8 24-12 7-20-5-3-10-7-15-13l-11 11H104l-19-9c10 57 1 132 4 196 10 8 20-5 17-21h140c-3 15 3 30 16 16v-160zM106-79v-43h140v43H106zm0-52v-43h140v43H106zm0-53v-42h140v42H106zM300-59l-20 22H22l5 10h293c13 0 13-9 3-12-10-6-17-13-23-20zM41 53c36-6 68-32 96-54-4-6-14-8-20-15-18 31-46 50-76 69zM216-8c38 19 58 45 81 62 15-2 6-20-1-27-11-11-37-24-79-39" id="aH"/><use transform="matrix(0.06172839506172839,0,0,0.06172839506172839,0,0)" xlink:href="#aH" id="G"/><path d="M56 54c10 8 29-11 29-28V-97l25-18c-6-6-17 6-25 7v-63c15-3 42 6 47-6-6-6-18-12-22-19-8 6-10 17-25 15 2-24-5-61 7-71-4-6-18-4-26-9 5 19 2 55 3 80H18l5 10h46v69c-17 6-38 12-55 14 5 5 9 22 16 28 7-10 24-19 39-27V26c-3 11-29 5-39 5v4c14 3 23 9 26 19zm246-295c5 1 14 4 17 0-5-8-16-12-21-22-47 24-105 36-174 39l2 6c64 0 123-8 176-23zm-132 85c26-14-1-44-26-52 12 16 19 30 19 45 0 4 3 7 7 7zm57-6c26-17-5-42-30-52 14 15 23 31 23 46 0 4 2 6 7 6zM121-98c18-2 21-18 24-40h156c-3 13-17 25-11 31 13-6 17-21 38-23 19-11-12-20-16-30l-14 12h-36c15-12 28-28 39-48 5-5 22-9 4-15-6-3-13-7-19-11-9 33-16 48-32 74H145c-1-4 5-17-4-15 1 16-22 41-30 52 1 7 4 12 10 13zM92 50c59-15 95-29 125-52 21 21 55 39 85 48 6-10 16-17 30-20v-4c-43-4-75-17-101-35 18-16 35-37 53-64 5-5 25-6 11-15-5-4-10-11-15-20l-16 14H140c2 9 13 10 25 9 14 35 28 60 41 76-28 21-66 41-115 59zm79-139h95c-14 28-29 50-47 66-18-16-33-38-48-66" id="aI"/><use transform="matrix(0.06172839506172839,0,0,0.06172839506172839,0,0)" xlink:href="#aI" id="H"/><path d="M146-111c-6-17-26-25-47-36v-28h54c7 0 9-10 1-11-8-5-14-9-18-15l-15 16H99c1-22-4-51 5-65-4-6-19-4-24-8 3 14 1 52 2 73H22l5 10h53C61-102 52-95 19-27c29-33 47-61 63-106l2 188c5-3 13-2 15-8v-189c14 14 18 18 27 39 2 5 6 9 10 9 8 0 9-9 10-17zm83 92c20 28 43 50 73 63 9-13 23-10 33-13-44-16-72-35-95-65 38-48 52-85 72-170 4-3 20-7 7-13-4-4-9-9-13-17l-14 9H137c2 13 19 10 34 10 6 74 18 133 50 184-25 30-53 50-109 81l2 3c50-19 84-40 115-72zm-55-196h120c-12 81-28 119-62 169-33-47-42-87-58-169" id="aJ"/><use transform="matrix(0.06172839506172839,0,0,0.06172839506172839,0,0)" xlink:href="#aJ" id="I"/><path d="M176-136c12-24-9-79 12-91-2-10-14-12-19-21l-15 11H37l6 10h118v65c-37-2-85 7-106-11 0 22-13 96-21 116 12 10 24-9 24-22h108c-7 35 3 107-41 108-4 0-15-1-31-3v5c17 6 28 15 35 26 51-29 39-32 54-122 1-6 26-8 10-18-6-4-12-9-16-17l-15 11H60c4-21 8-42 11-63h90c1 6-2 17 2 19zm116-97c-2-10 17-16 1-19-10-2-17-2-22-4 11 91-1 214 5 311 5-3 14-3 16-9v-279" id="aK"/><use transform="matrix(0.06172839506172839,0,0,0.06172839506172839,0,0)" xlink:href="#aK" id="J"/><path d="M263-159c11-22-7-70 14-78-3-11-16-11-23-21l-11 14H79l-23-14c7 37 1 89 3 131 1 25 8 31 34 31h192c17 0 26-5 34-15-11-3-14-17-14-37h-3c-5 33-10 37-57 37H98c-32 5-18-35-21-60h172c1 5-2 15 2 16zM77-234h172v53H77v-53zM222 53c10 7 28-13 28-28v-69h76c10 0 10-7 2-11-9-4-15-11-20-17l-17 19h-41c-2-14 3-21 8-26-6-6-20-4-29-9 2 7 3 21 3 35H18l5 9h209v69c-3 12-31 4-41 3v4c16 4 27 11 31 21zm-82-28c12-3 11-21 0-32-7-8-18-16-33-26 8 21 19 24 23 50 2 5 6 8 10 8" id="aL"/><use transform="matrix(0.06172839506172839,0,0,0.06172839506172839,0,0)" xlink:href="#aL" id="K"/><path d="M84-170c49 0 66 33 63 87H46c-8 60 38 80 95 63v10C128-2 108 4 88 4 34 4 14-29 14-84c-1-54 22-86 70-86zm33 73c12-57-57-82-69-24-1 7-2 15-2 24h71" id="aM"/><path d="M103-236c-39-15-35 32-34 71h44v15H69v136l35 6v8H15v-8l25-6v-136H11v-9l29-7c-6-59 23-100 80-84v36c-15 2-12-14-17-22" id="aN"/><path d="M57-145c16-10 35-24 60-25v45c-19 1-8-30-40-17l-20 6v124l29 4v8H7v-8l21-4v-141c-8-3-24 2-21-12h48" id="aO"/><path d="M125-118c4-37-41-34-68-26v132l23 4v8H8C5-13 21-9 28-12v-141c-7-3-23 1-20-12h47l2 13c31-23 98-29 98 31v109c7 3 23-1 20 12h-72v-8l22-4v-106" id="aP"/><path d="M45-84c0 64 52 80 104 63 1 25-30 25-55 25-56 0-80-32-80-88 0-76 62-98 131-80v46h-10c-5-15-4-31-23-35-47-10-67 21-67 69" id="aQ"/><g id="L"><use transform="matrix(0.06172839506172839,0,0,0.06172839506172839,0,0)" xlink:href="#aD"/><use transform="matrix(0.06172839506172839,0,0,0.06172839506172839,14.814814814814813,0)" xlink:href="#aM"/><use transform="matrix(0.06172839506172839,0,0,0.06172839506172839,24.629629629629626,0)" xlink:href="#aN"/><use transform="matrix(0.06172839506172839,0,0,0.06172839506172839,31.9753086419753,0)" xlink:href="#aM"/><use transform="matrix(0.06172839506172839,0,0,0.06172839506172839,41.79012345679012,0)" xlink:href="#aO"/><use transform="matrix(0.06172839506172839,0,0,0.06172839506172839,49.1358024691358,0)" xlink:href="#aM"/><use transform="matrix(0.06172839506172839,0,0,0.06172839506172839,58.95061728395061,0)" xlink:href="#aP"/><use transform="matrix(0.06172839506172839,0,0,0.06172839506172839,70.06172839506172,0)" xlink:href="#aQ"/><use transform="matrix(0.06172839506172839,0,0,0.06172839506172839,79.87654320987653,0)" xlink:href="#aM"/></g><path d="M55 0v-9l38-5v-207c-22 1-53 0-70 4l-5 37H7v-56h207v56h-12l-5-37-70-3v206l37 5v9H55" id="aR"/><path d="M90-170c52 0 76 32 76 87 0 54-24 87-77 87-51 0-75-34-75-87 0-54 24-87 76-87zM89-10c39 0 46-35 46-73 0-39-7-73-46-73-39 1-44 34-44 73s6 72 44 73" id="aS"/><path d="M60-80l68-73c-7-3-20 0-17-12h58c3 13-13 9-20 12l-47 48 60 93c7 3 21-1 18 12h-68c-3-12 9-9 15-12L82-83 60-60v48c7 3 21-1 18 12H10v-8l21-4v-226l-24-4v-8h53v170" id="aT"/><g id="M"><use transform="matrix(0.06172839506172839,0,0,0.06172839506172839,0,0)" xlink:href="#aR"/><use transform="matrix(0.06172839506172839,0,0,0.06172839506172839,11.975308641975307,0)" xlink:href="#aS"/><use transform="matrix(0.06172839506172839,0,0,0.06172839506172839,23.086419753086417,0)" xlink:href="#aT"/><use transform="matrix(0.06172839506172839,0,0,0.06172839506172839,34.19753086419753,0)" xlink:href="#aM"/><use transform="matrix(0.06172839506172839,0,0,0.06172839506172839,44.01234567901235,0)" xlink:href="#aP"/></g><use transform="matrix(0.06172839506172839,0,0,0.06172839506172839,0,0)" xlink:href="#az" id="N"/><use transform="matrix(0.06172839506172839,0,0,0.06172839506172839,0,0)" xlink:href="#Y" id="O"/><path d="M106-76c4 61-43 93-98 74v-43h11c2 18 5 33 28 33 16 0 25-11 25-33v-177l-30-4v-10h91v10l-27 4v146" id="aU"/><path d="M319-222L242 5h-10l-61-162L108 5h-9L21-222l-21-4v-10h90v10l-34 4 56 166 63-163h8l61 163 54-166-37-4v-10h78v10" id="aV"/><g id="P"><use transform="matrix(0.06172839506172839,0,0,0.06172839506172839,0,0)" xlink:href="#aU"/><use transform="matrix(0.06172839506172839,0,0,0.06172839506172839,8.641975308641975,0)" xlink:href="#aV"/><use transform="matrix(0.06172839506172839,0,0,0.06172839506172839,29.5679012345679,0)" xlink:href="#aR"/></g><path d="M78-224c5-11 7-20 17-27-5-6-17-6-25-12-8 51-27 86-55 122 11-1 18-15 28-25 0 70 8 179-26 219l2 1C44 25 53 8 58-37h77c-2 19 6 53-6 62-9 0-20-1-35-4v4c18 6 28 13 35 25 8-2 22-16 22-30v-167c0-7 18-13 8-19-5-3-10-8-15-14l-12 12h-30c13-12 25-35 44-44-4-10-15-10-21-22-6 13-28 10-47 10zM59-46l1-52h29v52H59zm47-52h29v52h-29v-52zm-46-10v-51h29v51H60zm46-51h29v51h-29v-51zm-55-18c9-11 14-23 22-37h42c-5 16-11 31-18 46-19 1-37 0-46-9zm259-41c1-3 17-8 7-14-5-3-10-9-14-15l-13 11H170l6 10h43c-10 51-19 68-54 90l1 3c43-19 58-36 70-93h58c-3 57-4 63-55 55v4c18 4 29 13 38 23 33-14 23-19 33-74zM254-93c0-16-1-34 5-43-3-7-19-4-24-8 3 8 3 34 3 51h-37c7-9 7-26 19-31-4-5-16-7-23-13-2 37-19 63-28 91 9-8 20-25 28-37h41v48h-79l6 9h73l1 80c5-3 13-3 15-8v-72h73c9 1 9-9 1-11-8-5-14-10-19-16l-17 18h-38v-48h56c7 0 8-8 2-11-8-4-15-8-20-15l-16 16h-22" id="aW"/><use transform="matrix(0.06172839506172839,0,0,0.06172839506172839,0,0)" xlink:href="#aW" id="Q"/><path d="M144-108c-5-17-25-27-45-39v-27h55c8 0 10-10 1-11-8-5-14-9-18-15l-15 16H99c1-21-4-51 5-64-3-7-19-4-24-8 4 14 1 51 2 72H22l5 10h50C60-106 48-99 19-35c28-33 48-59 63-106l2 194c5-3 13-4 15-9v-185c14 15 17 19 26 41 2 5 6 8 10 8 6 0 9-8 9-16zm44-99c36-1 77-17 124-20 8 0 4-5 2-7-6-4-13-10-19-18-30 17-64 29-103 39l-24-12c11 101 7 222-58 271l1 3c58-39 74-93 77-182h68l2 188c5-2 14-2 14-8v-180h56c8 0 7-8 1-11-9-4-17-11-23-19l-19 21h-99v-65" id="aX"/><use transform="matrix(0.06172839506172839,0,0,0.06172839506172839,0,0)" xlink:href="#aX" id="R"/><path d="M81-9v9H4v-9l26-5 81-224h33l83 224 30 5v9h-99v-9l31-5-23-68H73L49-14zm38-203L78-98h82" id="aY"/><path d="M77-14l30 5v9H13v-9l30-5v-208l-30-4v-10h94v10l-30 4v208" id="aZ"/><g id="S"><use transform="matrix(0.06172839506172839,0,0,0.06172839506172839,0,0)" xlink:href="#aY"/><use transform="matrix(0.06172839506172839,0,0,0.06172839506172839,15.987654320987653,0)" xlink:href="#aE"/><use transform="matrix(0.06172839506172839,0,0,0.06172839506172839,28.333333333333332,0)" xlink:href="#aZ"/></g><path d="M82-193c5 14 21 8 20-8-7-21-30-38-55-49 21 23 24 26 35 57zm17 71c1-9 20-12 6-20-4-2-9-5-14-11-11 15-44 7-68 9l6 10h52V9c0 6-3 11-7 15 6 6 11 13 14 19 23-16 45-37 66-61l-1-2C135-6 117 4 99 11v-133zm129-90c5 14 21 8 18-7-3-16-23-32-41-39 13 18 15 23 23 46zm80 109c2-5 15-11 3-17-4-3-9-7-14-14l-14 11h-71l1-59h111c8 1 12-9 3-11-9-5-16-12-21-18l-16 19H140l6 10h49c0 117-10 172-73 233l3 3c60-48 80-80 86-168h77c1 44-4 107-17 130-7 11-24 5-43 4v4c16 6 26 14 31 26 54-25 39-73 49-153" id="ba"/><use transform="matrix(0.06172839506172839,0,0,0.06172839506172839,0,0)" xlink:href="#ba" id="T"/><path d="M59-186c-1-9 13-15 0-18-8-1-14-2-18-4 6 82-2 179 3 263 5-3 13-2 15-8v-233zm-14-64c26 18 33 37 47 53 11-1 10-23 1-29-7-8-22-18-46-28zm265 39c1-10 18-12 5-20-4-2-8-5-12-10l-11 11H111l6 9h177V10c3 25-30 12-40 12v4c18 7 25 15 30 27 8 0 28-17 26-28v-236zm-79 93c-1-9 21-13 5-20-5-3-10-7-15-13l-11 11c-34-2-77 6-98-9 11 35 3 86 5 129 2 5 14-1 16-4v-20h81c1 7-3 18 3 20 4-2 12-4 14-7v-87zm-98 65v-77h81v77h-81" id="bb"/><use transform="matrix(0.06172839506172839,0,0,0.06172839506172839,0,0)" xlink:href="#bb" id="U"/><path d="M54 51c10 8 27-11 27-27V-89c15-6 32-13 51-22-14-6-37 9-51 9v-72c14-3 41 7 45-6-5-7-19-12-22-19-8 5-9 16-23 15v-53c-1-7 16-11 1-14-6 0-13-2-20-5 5 17 2 49 3 72H17l5 10h43v75l-53 7c5 6 10 21 17 28 3-9 21-13 36-18V24c-3 10-28 3-36 2v5c14 4 22 10 25 20zm184-270c-2-16 2-26 6-35l-26-8c4 9 3 29 3 43h-63c-1-5 4-16-4-15 1 21-21 53-29 68 1 7 3 10 8 11 21-4 23-23 25-55h39c-8 59-29 89-71 109l2 3c53-14 76-49 86-112h28c3 33-10 90 16 96 26-3 62 9 69-15-11 0-11-21-14-33-9 3-4 34-17 33-17-2-38 10-38-15v-66h47c-7 19-20 34-22 44 11-9 24-22 36-37 7 0 26-6 13-15-6-3-12-8-17-15l-12 14h-65zm53 119l-16 18H133l6 10h73V31H102l5 9h224c9 1 10-8 2-10-8-5-16-11-20-17l-16 18h-68V-72h80c8 0 10-9 1-11-8-5-14-11-19-17" id="bc"/><use transform="matrix(0.06172839506172839,0,0,0.06172839506172839,0,0)" xlink:href="#bc" id="V"/><path d="M58-196c6-11 11-27 23-33-6-5-17-8-25-15-11 45-16 61-39 96 14-4 24-24 35-38h54v48H18l5 9h83v41c-26 0-55 3-69-9 9 34 2 81 4 121 3 5 13-3 17-4v-98h48l1 132c5-3 14-2 15-8V-78h55v69c2 22-20 4-31 9 12 6 18 14 22 25 8-2 29-14 26-27v-63c0-7 19-14 7-20-5-3-9-7-14-13-10 15-41 9-65 10v-41h84c9 0 9-8 1-11-8-5-14-10-19-16l-16 18h-50v-48h70c7 0 9-8 2-11-8-3-15-8-20-15l-16 16h-36c1-19-4-45 6-55-3-7-20-4-25-8 4 11 3 44 3 63H58zm189-10c-3-11 16-15 1-19-6 0-13-2-20-5 10 67-3 156 5 225 5-3 14-2 14-8v-193zm61-33c-1-8 16-10 0-14-6 0-13-2-20-5 8 85 1 187 3 278-3 11-29 5-38 2v4c15 4 21 16 26 27 13-1 29-15 29-33v-259" id="bd"/><use transform="matrix(0.06172839506172839,0,0,0.06172839506172839,0,0)" xlink:href="#bd" id="W"/></defs></g></svg>